#N canvas 204 0 689 639 10;
#X obj 241 412 vslider 15 100 52 140 0 0 empty empty empty 20 8 0 8
-262144 -1 -1 2800 1;
#X floatatom 241 524 5 0 0;
#X obj 23 514 dac~;
#X msg 108 276 pause;
#X msg 108 308 status;
#X msg 108 202 close;
#X msg 107 179 csound;
#X msg 107 73 bin /usr/local/bin/csound;
#X msg 107 96 orc csound~-help.orc;
#X msg 107 120 sco csound~-help.sco;
#X msg 108 331 help;
#X msg 109 243 bang;
#X text 15 12 +++ csound~ help +++++++++++++++++++++++++++++++++++++
;
#X obj 22 358 s csound;
#X msg 241 547 i1 0 0.3 0.2 \$1;
#X obj 241 570 s csound;
#X obj 23 465 csound~ 2 1;
#X obj 23 429 r csound;
#X obj 18 40 loadbang;
#X text 260 96 << set orchestra filename;
#X text 295 73 << set executable filename;
#X text 260 120 << set score filename;
#X text 208 148 << start csound process with arguments;
#X text 159 179 << start csound process without arguments;
#X msg 108 148 csound -d -m0;
#X text 158 201 << terminate csound process;
#X text 229 160 performance is initially paused;
#X text 166 307 << display object status on stdout;
#X text 164 331 << display online help on stdout;
#X text 21 408 2 channels with input;
#X text 19 393 +++ csound~ object;
#X text 103 51 +++ method protocol;
#X obj 409 459 line~;
#X obj 409 486 *~;
#X obj 409 411 bng 15 250 50 0 empty empty empty 20 8 0 8 -262144 -1
-1;
#X text 405 392 +++ use csound as a filter;
#X text 238 391 +++ send line events;
#X text 265 407 << move this;
#X text 433 409 << click here;
#X obj 95 429 catch~ csound-bus;
#X obj 409 512 throw~ csound-bus;
#X text 154 242 << unpause csound performance;
#X text 174 256 resumes from where it was paused before;
#X text 154 274 << pause csound performance;
#X text 176 288 no more audio will be produced;
#X obj 23 488 *~ 0.3;
#X obj 95 488 *~ 0.3;
#X obj 453 459 noise~;
#X msg 409 432 1 \, 0 15;
#X text 20 611 +++ ( c ) 2002 orm finnendahl \, stefan kersten ++++++++
;
#X connect 0 0 1 0;
#X connect 1 0 14 0;
#X connect 3 0 13 0;
#X connect 4 0 13 0;
#X connect 5 0 13 0;
#X connect 6 0 13 0;
#X connect 7 0 13 0;
#X connect 8 0 13 0;
#X connect 9 0 13 0;
#X connect 10 0 13 0;
#X connect 11 0 13 0;
#X connect 14 0 15 0;
#X connect 16 0 45 0;
#X connect 16 1 46 0;
#X connect 17 0 16 0;
#X connect 18 0 7 0;
#X connect 18 0 8 0;
#X connect 18 0 9 0;
#X connect 24 0 13 0;
#X connect 32 0 33 0;
#X connect 33 0 40 0;
#X connect 34 0 48 0;
#X connect 39 0 16 0;
#X connect 39 0 16 1;
#X connect 45 0 2 0;
#X connect 46 0 2 1;
#X connect 47 0 33 1;
#X connect 48 0 32 0;
