#N canvas 51 68 420 425 10;
#X obj 260 201 vslider 15 128 52 128 0 0 empty empty empty 20 8 0 8
-262144 -1 -1 11363 1;
#X obj 116 292 dac~;
#X floatatom 260 339 5 0 0;
#X obj 116 266 *~;
#X obj 143 266 *~;
#X obj 323 200 vslider 15 128 0.01 1 1 0 empty empty empty 20 8 0 8
-262144 -1 -1 0 1;
#X floatatom 323 338 5 0 0;
#X obj 167 226 line 0 50;
#X obj 323 175 line 0 0;
#X obj 71 225 csound~ 2 2;
#X obj 260 176 line 0 0;
#N canvas 330 164 481 254 sizzler 0;
#X floatatom 5 145 5 0 0;
#X obj 5 99 random 1000;
#X obj 5 122 expr $f1 / 100 + $f2;
#X floatatom 180 144 5 0 0;
#X obj 180 100 random 1000;
#X obj 180 122 / 1000;
#X obj 28 15 inlet;
#X obj 5 223 outlet;
#X obj 209 14 inlet;
#X floatatom 281 146 5 0 0;
#X obj 5 176 pack 0 0 0;
#X obj 281 100 random 400;
#X msg 5 200 i1 0 0.9 \$3 \$1 \$2;
#X obj 282 123 expr $f1 / 10000 + 0.08;
#X obj 97 42 metro 20;
#X obj 148 17 inlet;
#X connect 0 0 10 0;
#X connect 1 0 2 0;
#X connect 2 0 0 0;
#X connect 4 0 5 0;
#X connect 5 0 3 0;
#X connect 5 0 10 1;
#X connect 6 0 14 0;
#X connect 8 0 2 1;
#X connect 9 0 10 2;
#X connect 10 0 12 0;
#X connect 11 0 13 0;
#X connect 12 0 7 0;
#X connect 13 0 9 0;
#X connect 14 0 4 0;
#X connect 14 0 1 0;
#X connect 14 0 11 0;
#X connect 15 0 14 1;
#X restore 71 193 pd sizzler;
#N canvas 421 336 566 232 sequencer 0;
#X obj 180 71 delay;
#X obj 180 44 t b 0;
#X obj 178 94 bng 15 250 50 0 empty empty empty 20 8 0 8 -262144 -1
-1;
#X obj 354 71 delay;
#X obj 354 44 t b 0;
#X obj 352 95 bng 15 250 50 0 empty empty empty 20 8 0 8 -262144 -1
-1;
#X obj 485 71 delay;
#X obj 485 44 t b 0;
#X obj 483 95 bng 15 250 50 0 empty empty empty 20 8 0 8 -262144 -1
-1;
#X obj 5 74 bng 15 250 50 0 empty empty empty 20 8 0 8 -262144 -1 -1
;
#X obj 7 48 inlet;
#X msg 119 6 stop;
#X obj 7 92 f \$0;
#X obj 180 111 f \$0;
#X msg 485 131 \; \$1-metro 0;
#X obj 354 110 f \$0;
#X obj 485 111 f \$0;
#X msg 180 134 5000 \; \$1-metrospeed 20 \; \$1-centerpitch 120 2000
;
#X msg 6 114 5000 \; \$1-centerpitch 59.62 0 \; \$1-metrospeed 30 \;
\$1-metro 1 \; \$1-volume 0 0 \, 1 5000;
#X msg 355 132 10000 \; \$1-metrospeed 30 \; \$1-volume 0 10000;
#X connect 0 0 2 0;
#X connect 1 0 0 0;
#X connect 1 1 0 1;
#X connect 2 0 13 0;
#X connect 3 0 5 0;
#X connect 4 0 3 0;
#X connect 4 1 3 1;
#X connect 5 0 15 0;
#X connect 6 0 8 0;
#X connect 7 0 6 0;
#X connect 7 1 6 1;
#X connect 8 0 16 0;
#X connect 9 0 12 0;
#X connect 10 0 11 0;
#X connect 10 0 9 0;
#X connect 11 0 0 0;
#X connect 11 0 3 0;
#X connect 11 0 6 0;
#X connect 12 0 18 0;
#X connect 13 0 17 0;
#X connect 15 0 19 0;
#X connect 16 0 14 0;
#X connect 17 0 4 0;
#X connect 18 0 1 0;
#X connect 19 0 7 0;
#X restore 28 368 pd sequencer;
#X obj 28 344 bng 15 250 50 0 empty empty empty 20 8 0 8 -262144 -1
-1;
#X msg 181 366 \; pd dsp 1;
#X obj 181 343 loadbang;
#X obj 260 129 r \$0-centerpitch;
#X obj 323 151 r \$0-volume;
#X obj 71 140 r \$0-metro;
#X obj 103 161 r \$0-metrospeed;
#X text 11 14 1.: click here to initialize the csound~ object;
#X text 26 323 2.: click to start sequence;
#X msg 11 36 \; csound bin /usr/local/bin/csound \; csound orc csound~-sizzler.orc
\; csound sco csound~-sizzler.sco \; csound csound -d -m0 \; csound
bang;
#X obj 8 192 r csound;
#X connect 0 0 2 0;
#X connect 2 0 11 2;
#X connect 3 0 1 0;
#X connect 4 0 1 1;
#X connect 5 0 6 0;
#X connect 6 0 7 0;
#X connect 7 0 4 1;
#X connect 7 0 3 1;
#X connect 8 0 5 0;
#X connect 9 0 3 0;
#X connect 9 1 4 0;
#X connect 10 0 0 0;
#X connect 11 0 9 0;
#X connect 13 0 12 0;
#X connect 15 0 14 0;
#X connect 16 0 10 0;
#X connect 17 0 8 0;
#X connect 18 0 11 0;
#X connect 19 0 11 1;
#X connect 23 0 9 0;
