#N canvas 159 128 658 439 10;
#X floatatom 37 202 5 0 0;
#X floatatom 123 203 5 0 0;
#X floatatom 125 250 5 0 0;
#X floatatom 199 250 5 0 0;
#X floatatom 424 38 5 0 0;
#X floatatom 478 39 5 0 0;
#N canvas 216 0 409 304 note 0;
#X obj 167 161 mtof;
#X obj 101 148 f;
#X obj 167 59 expr ($f1*100)%$f3+$f2;
#X obj 29 59 r metro;
#X obj 167 33 r line;
#X obj 241 31 inlet;
#X obj 316 32 inlet;
#X obj 69 195 pack f f f;
#X obj 29 167 / 1000;
#X obj 29 87 t b b;
#X obj 117 120 r dur;
#X obj 29 142 random 0;
#X obj 96 31 inlet;
#X msg 69 222 i1 \$1 \$2 \$3;
#X obj 69 248 s csound;
#X text 228 13 pitch base;
#X text 307 13 pitch mod;
#X text 34 12 max time deviation;
#X obj 80 94 expr (1-$f1)*$f2;
#X connect 0 0 7 2;
#X connect 1 0 7 1;
#X connect 2 0 0 0;
#X connect 3 0 9 0;
#X connect 4 0 2 0;
#X connect 4 0 18 0;
#X connect 5 0 2 1;
#X connect 6 0 2 2;
#X connect 7 0 13 0;
#X connect 8 0 7 0;
#X connect 9 0 11 0;
#X connect 9 1 1 0;
#X connect 10 0 1 1;
#X connect 11 0 8 0;
#X connect 12 0 18 1;
#X connect 13 0 14 0;
#X connect 18 0 11 1;
#X restore 402 72 pd note;
#X floatatom 377 38 5 0 0;
#X obj 37 180 r min-delta;
#X obj 123 181 r delta-range;
#X obj 125 228 r min-dur;
#X obj 199 228 r dur-range;
#X obj 377 17 r dev1;
#X obj 424 17 r base1;
#X obj 478 17 r mod1;
#N canvas 0 0 488 347 init 0;
#X obj 21 16 loadbang;
#X msg 147 250 \; dev1 442 \; base1 44 \; mod1 5;
#X msg 227 250 \; dev2 233 \; base2 49 \; mod2 1;
#X msg 303 250 \; dev3 99 \; base3 63 \; mod3 1;
#X msg 381 250 \; dev4 0 \; base4 68 \; mod4 10;
#X msg 21 45 bang \; csound bin /usr/local/bin/csound \; csound orc
csound~-dang.orc \; csound sco csound~-dang.sco \; csound csound -dm0
\; csound bang \; pd dsp 1;
#X text 47 182 snapshots would be cool ...;
#X obj 21 184 bng 15 250 50 0 empty empty empty 20 8 0 8 -262144 -1
-1;
#X msg 21 250 \; total-dur 2000 \; min-delta 83 \; delta-range 686
\; min-dur 1082 \; dur-range 3682;
#X connect 0 0 5 0;
#X connect 5 0 7 0;
#X connect 7 0 8 0;
#X connect 7 0 1 0;
#X connect 7 0 2 0;
#X connect 7 0 3 0;
#X connect 7 0 4 0;
#X restore 25 305 pd init;
#N canvas 0 0 600 400 csound 0;
#X obj 37 101 dac~;
#X obj 37 46 csound~ 1 0;
#X obj 37 22 r csound;
#X obj 37 70 *~ 0.1;
#X connect 1 0 3 0;
#X connect 2 0 1 0;
#X connect 3 0 0 0;
#X connect 3 0 0 1;
#X restore 25 328 pd csound;
#N canvas 0 0 600 400 gliss 0;
#X obj 117 68 line;
#X obj 38 197 metro;
#X obj 38 134 select 0 1;
#X msg 38 158 0;
#X msg 70 158 1;
#X obj 117 196 expr ((1-$f1)*$f3/1000)+($f2/1000);
#X obj 129 167 expr ((1-$f1)*$f3)+$f2;
#X obj 38 224 s metro;
#X obj 141 113 s line;
#X obj 117 224 s dur;
#X obj 203 37 inlet;
#X obj 117 40 inlet;
#X obj 278 37 inlet;
#X obj 341 36 inlet;
#X obj 389 36 inlet;
#X connect 0 0 2 0;
#X connect 0 0 5 0;
#X connect 0 0 6 0;
#X connect 0 0 8 0;
#X connect 1 0 7 0;
#X connect 2 0 3 0;
#X connect 2 1 4 0;
#X connect 3 0 1 0;
#X connect 4 0 1 0;
#X connect 5 0 9 0;
#X connect 6 0 1 1;
#X connect 10 0 6 1;
#X connect 11 0 0 0;
#X connect 12 0 6 2;
#X connect 13 0 5 1;
#X connect 14 0 5 2;
#X restore 25 281 pd gliss;
#X floatatom 425 129 5 0 0;
#X floatatom 479 130 5 0 0;
#N canvas 216 0 409 304 note 0;
#X obj 167 161 mtof;
#X obj 101 148 f;
#X obj 167 59 expr ($f1*100)%$f3+$f2;
#X obj 29 59 r metro;
#X obj 167 33 r line;
#X obj 241 31 inlet;
#X obj 316 32 inlet;
#X obj 69 195 pack f f f;
#X obj 29 167 / 1000;
#X obj 29 87 t b b;
#X obj 117 120 r dur;
#X obj 29 142 random 0;
#X obj 96 31 inlet;
#X msg 69 222 i1 \$1 \$2 \$3;
#X obj 69 248 s csound;
#X text 228 13 pitch base;
#X text 307 13 pitch mod;
#X text 34 12 max time deviation;
#X obj 80 94 expr (1-$f1)*$f2;
#X connect 0 0 7 2;
#X connect 1 0 7 1;
#X connect 2 0 0 0;
#X connect 3 0 9 0;
#X connect 4 0 2 0;
#X connect 4 0 18 0;
#X connect 5 0 2 1;
#X connect 6 0 2 2;
#X connect 7 0 13 0;
#X connect 8 0 7 0;
#X connect 9 0 11 0;
#X connect 9 1 1 0;
#X connect 10 0 1 1;
#X connect 11 0 8 0;
#X connect 12 0 18 1;
#X connect 13 0 14 0;
#X connect 18 0 11 1;
#X restore 403 163 pd note;
#X floatatom 378 129 5 0 0;
#X floatatom 426 219 5 0 0;
#X floatatom 480 220 5 0 0;
#N canvas 216 0 409 304 note 0;
#X obj 167 161 mtof;
#X obj 101 148 f;
#X obj 167 59 expr ($f1*100)%$f3+$f2;
#X obj 29 59 r metro;
#X obj 167 33 r line;
#X obj 241 31 inlet;
#X obj 316 32 inlet;
#X obj 69 195 pack f f f;
#X obj 29 167 / 1000;
#X obj 29 87 t b b;
#X obj 117 120 r dur;
#X obj 29 142 random 0;
#X obj 96 31 inlet;
#X msg 69 222 i1 \$1 \$2 \$3;
#X obj 69 248 s csound;
#X text 228 13 pitch base;
#X text 307 13 pitch mod;
#X text 34 12 max time deviation;
#X obj 80 94 expr (1-$f1)*$f2;
#X connect 0 0 7 2;
#X connect 1 0 7 1;
#X connect 2 0 0 0;
#X connect 3 0 9 0;
#X connect 4 0 2 0;
#X connect 4 0 18 0;
#X connect 5 0 2 1;
#X connect 6 0 2 2;
#X connect 7 0 13 0;
#X connect 8 0 7 0;
#X connect 9 0 11 0;
#X connect 9 1 1 0;
#X connect 10 0 1 1;
#X connect 11 0 8 0;
#X connect 12 0 18 1;
#X connect 13 0 14 0;
#X connect 18 0 11 1;
#X restore 404 253 pd note;
#X floatatom 379 219 5 0 0;
#X floatatom 426 309 5 0 0;
#X floatatom 480 310 5 0 0;
#N canvas 216 0 409 304 note 0;
#X obj 167 161 mtof;
#X obj 101 148 f;
#X obj 167 59 expr ($f1*100)%$f3+$f2;
#X obj 29 59 r metro;
#X obj 167 33 r line;
#X obj 241 31 inlet;
#X obj 316 32 inlet;
#X obj 69 195 pack f f f;
#X obj 29 167 / 1000;
#X obj 29 87 t b b;
#X obj 117 120 r dur;
#X obj 29 142 random 0;
#X obj 96 31 inlet;
#X msg 69 222 i1 \$1 \$2 \$3;
#X obj 69 248 s csound;
#X text 228 13 pitch base;
#X text 307 13 pitch mod;
#X text 34 12 max time deviation;
#X obj 80 94 expr (1-$f1)*$f2;
#X connect 0 0 7 2;
#X connect 1 0 7 1;
#X connect 2 0 0 0;
#X connect 3 0 9 0;
#X connect 4 0 2 0;
#X connect 4 0 18 0;
#X connect 5 0 2 1;
#X connect 6 0 2 2;
#X connect 7 0 13 0;
#X connect 8 0 7 0;
#X connect 9 0 11 0;
#X connect 9 1 1 0;
#X connect 10 0 1 1;
#X connect 11 0 8 0;
#X connect 12 0 18 1;
#X connect 13 0 14 0;
#X connect 18 0 11 1;
#X restore 404 343 pd note;
#X floatatom 379 309 5 0 0;
#X obj 378 108 r dev2;
#X obj 425 108 r base2;
#X obj 479 108 r mod2;
#X obj 379 198 r dev3;
#X obj 426 198 r base3;
#X obj 480 198 r mod3;
#X obj 379 288 r dev4;
#X obj 426 288 r base4;
#X obj 480 288 r mod4;
#X text 22 366 here we use a plucked string csound instrument to create
;
#X floatatom 47 59 5 0 0;
#X obj 25 15 bng 15 250 50 0 empty empty empty 20 8 0 8 -262144 -1
-1;
#X msg 25 106 1 \, \$1 \$2;
#X obj 25 83 pack 0 f;
#X obj 47 36 r total-dur;
#X text 94 59 << change this;
#X msg 222 28 \; total-dur 20000;
#X msg 222 60 \; total-dur 12000;
#X msg 222 92 \; total-dur 8000;
#X msg 222 124 \; total-dur 2000;
#X text 220 9 click one of these;
#X text 47 13 << start glissando;
#X text 21 382 circling chord glissandi.;
#X connect 0 0 17 1;
#X connect 1 0 17 2;
#X connect 2 0 17 3;
#X connect 3 0 17 4;
#X connect 4 0 6 1;
#X connect 5 0 6 2;
#X connect 7 0 6 0;
#X connect 8 0 0 0;
#X connect 9 0 1 0;
#X connect 10 0 2 0;
#X connect 11 0 3 0;
#X connect 12 0 7 0;
#X connect 13 0 4 0;
#X connect 14 0 5 0;
#X connect 18 0 20 1;
#X connect 19 0 20 2;
#X connect 21 0 20 0;
#X connect 22 0 24 1;
#X connect 23 0 24 2;
#X connect 25 0 24 0;
#X connect 26 0 28 1;
#X connect 27 0 28 2;
#X connect 29 0 28 0;
#X connect 30 0 21 0;
#X connect 31 0 18 0;
#X connect 32 0 19 0;
#X connect 33 0 25 0;
#X connect 34 0 22 0;
#X connect 35 0 23 0;
#X connect 36 0 29 0;
#X connect 37 0 26 0;
#X connect 38 0 27 0;
#X connect 40 0 43 1;
#X connect 41 0 43 0;
#X connect 42 0 17 0;
#X connect 43 0 42 0;
#X connect 44 0 40 0;
