#N canvas 213 154 735 492 10;
#X obj 25 227 line~;
#X obj 25 292 csound~ 1 1;
#X obj 25 256 *~;
#X obj 25 318 outlet~;
#X obj 230 149 r csound-$0;
#X obj 69 227 noise~;
#X msg 128 232 i2 0 0.1 \$1 \$2;
#X text 79 137 decay;
#X obj 128 160 pack f f;
#X text 130 138 frq;
#X text 177 137 res;
#X msg 230 50 \; csound-$0 bin /usr/local/bin/csound \; csound-$0 orc
csound~-moogrum.orc \; csound-$0 sco csound~-moogrum.sco \; csound-$0
csound -dm0 \; csound-$0 bang;
#X obj 25 21 r \$1;
#X msg 252 208 close;
#X obj 230 25 r \$1-start;
#X obj 252 182 r \$1-stop;
#X obj 25 51 unpack f f f f;
#X msg 25 198 \$1 \, 0 \$2;
#X obj 25 160 pack f f;
#X text 31 133 amp;
#X connect 0 0 2 0;
#X connect 1 0 3 0;
#X connect 2 0 1 0;
#X connect 4 0 1 0;
#X connect 5 0 2 1;
#X connect 6 0 1 0;
#X connect 8 0 6 0;
#X connect 12 0 16 0;
#X connect 13 0 1 0;
#X connect 14 0 11 0;
#X connect 15 0 13 0;
#X connect 16 0 18 0;
#X connect 16 1 18 1;
#X connect 16 2 8 0;
#X connect 16 3 8 1;
#X connect 17 0 0 0;
#X connect 18 0 17 0;
