#N canvas 114 101 475 265 10;
#X obj 23 113 csound~ 2;
#X obj 23 188 dac~;
#X obj 23 163 *~;
#X obj 93 161 *~;
#X obj 109 112 dbtorms;
#X floatatom 109 90 5 0 0;
#X msg 189 142 \; csound bin /usr/local/bin/csound \; csound orc trapped.orc
\; csound sco trapped.sco \; csound csound -dm0 \; pd dsp 1;
#X obj 189 119 loadbang;
#X text 131 69 << click here to start;
#X obj 23 90 r csound;
#X obj 23 138 /~ 32768;
#X obj 93 138 /~ 32768;
#X obj 109 70 bng 15 250 50 0 empty empty empty 20 8 0 8 -262144 -1
-1;
#X text 17 36 listen to this csound evergreen inside pd ...;
#X text 15 238 ++++++++++++++++++++++++++++++++++++++ sit back'n relax
+++;
#X text 19 13 +++ trapped in convert (richard boulanger) +++++++++++++++
;
#X text 154 91 << master volume (dB);
#X connect 0 0 10 0;
#X connect 0 1 11 0;
#X connect 2 0 1 0;
#X connect 3 0 1 1;
#X connect 4 0 3 1;
#X connect 4 0 2 1;
#X connect 5 0 4 0;
#X connect 7 0 6 0;
#X connect 9 0 0 0;
#X connect 10 0 2 0;
#X connect 11 0 3 0;
#X connect 12 0 0 0;
